<svg xmlns="http://www.w3.org/2000/svg" viewBox="0 0 379 282.92"><defs><style>.cls-1{fill:#ff6238;}</style></defs><title>YucelFilms_Logo</title><g id="Layer_2" data-name="Layer 2"><g id="Connect"><path class="cls-1" d="M55.2,185.11v13.22l-10.1-7.46-1.06-2L26.72,178.73l-5.91-4.25.3-.44-4.7-3.51L10,166h-9v12.28l-.15.17.15.15V188.9L0,189.83l1.82,1.82v13.51L.32,209.85v13.21l.91,2.43-.76,7.13.6,2.75v11.54l.61,6.51.61,6.85.91,5.9,6.22-.29h1.52l6.83-5,4.1-3.06-.15-.45,5.77-4.24L45,243l.91-2,9.34-6.88v28.37L56.05,278l8.86-.68,6.48,1.7h1.7l2.22-29.49-1.53-5.28V229.92h28.81l1.35-3-1.2-12.45v-9.18l-17.2,1.33H77.69l-3.41-1.18v-28.8h41.43V155.12h-59Zm-5.39,33.11-2.58.76L36.6,226.85l-2.89,4-10.79,7.91-2.57-.32-.15,1.38-2.73,2.13.15-.61-1.21-1.23.76-.61V208.8l.91-1.82-1.82-17.32,3.18,2.43v1.21l2.74-.28,10.78,8,2.88,4,10.63,7.88,2.43.6,3,2.74Z"/><polygon class="cls-1" points="123.89 157.33 125.42 157.83 125.42 280.22 146.04 282.92 147.57 264.87 147.57 155.63 127.12 155.63 123.89 157.33"/><polygon class="cls-1" points="206.18 259.92 205.18 259.75 204.83 261.3 179.6 262.3 179.43 261.3 178.24 260.44 179.09 256.52 179.78 245.78 179.78 213.05 178.4 211.52 178.4 170.62 175.68 170.44 175.68 164.82 176.7 155.96 157.28 155.96 157.97 159.71 158.8 178.12 158.8 281.4 227.48 281.4 227.48 260.78 207.05 260.78 206.18 259.92"/><polygon class="cls-1" points="296.02 199.25 296.53 196.52 295.15 175.22 296.02 166.87 292.95 163.47 293.63 159.87 295.84 152.74 278.3 152.74 265.17 188.7 252.55 154.09 236.87 154.09 233.64 156.64 235.69 196.87 235.69 270.33 238.07 280.71 256.49 280.71 256.49 234.88 254.27 215.1 256.49 219.7 266.88 246.13 269.44 245.78 277.79 216.99 277.79 279.01 279.14 281.4 295.5 281.4 297.22 279.88 297.22 251.75 295.15 227.72 296.7 222.6 296.7 213.4 296.02 205.05 297.38 201.3 296.02 199.25"/><polygon class="cls-1" points="376.62 267.94 379 256.69 378.51 256.34 378.32 254.47 377.13 253.79 378.17 248.84 377.13 224.49 377.98 223.98 377.98 222.78 370.32 219.36 370.32 218.01 330.95 197.54 328.72 195.84 328.72 192.28 329.24 190.74 328.55 190.05 328.55 185.96 329.24 184.09 328.22 182.38 328.22 175.75 346.97 175.75 354.98 175.23 358.05 175.56 358.05 198.4 359.58 203.84 376.8 205.39 376.8 176.08 375.62 173.86 376.28 172.68 376.28 167.9 374.23 165.01 375.26 164.5 374.58 156.98 370.65 155.78 369.81 154.78 356.85 155.78 356.35 154.95 353.62 154.78 348.33 156.15 347.48 155.11 342.03 156.15 341.35 155.46 338.45 155.11 337.59 155.78 310.67 155.78 310.67 209.14 358.57 231.98 360.43 262.31 330.62 262.31 329.75 254.98 330.27 253.63 330.27 238.11 331.3 237.26 330.1 235.56 330.1 227.54 319.02 227.54 311.85 227.88 311.17 228.93 311.17 265.39 312.37 276.12 313.57 279.69 362.82 279.69 364.53 279.36 377.31 280.04 377.98 274.24 376.62 272.04 376.62 267.94"/><polygon class="cls-1" points="99.91 17.84 93.58 22.66 87.87 22.66 84.26 20.55 81.25 17.23 79.44 13.17 79.44 9.86 81.69 6.26 85 3.09 88.78 1.13 92.23 1.13 95.84 3.54 98.4 7.16 99.91 11.66 99.91 17.84"/><polygon class="cls-1" points="135.3 17.84 128.97 22.66 123.27 22.66 119.65 20.55 116.65 17.23 114.84 13.17 114.84 9.86 117.09 6.26 120.4 3.09 124.18 1.13 127.62 1.13 131.24 3.54 133.8 7.16 135.3 11.66 135.3 17.84"/><polygon class="cls-1" points="33.17 41.35 21.15 0.36 0 0.36 17.12 43.53 20.95 56.47 22.06 63.76 22.06 134.44 42.83 134.44 42.83 105.29 42.28 103.65 44.45 102.01 43.72 98.73 43.72 63.94 44.45 57.2 51.19 35.7 65.77 2 44.45 2 33.17 41.35"/><polygon class="cls-1" points="141.96 70.02 139.99 65.77 141.35 64.56 139.08 60.61 139.08 51.88 139.52 51.76 140.41 36.23 133.49 36.23 124.14 34.95 121.83 36.41 121.85 41.94 121.47 41.94 121.47 105.54 122.07 117.99 93.99 117.99 93.99 72.91 94.9 70.32 92.32 68.65 93.99 67.29 93.99 51.76 94.4 51.76 94.4 36.41 91.64 34.95 80.46 36.23 72.2 36.23 73.04 46.61 73.04 137.41 78.05 136.51 105.37 136.51 105.83 136.97 138.77 136.97 141.35 138.94 139.99 116.78 141.35 116.02 140.44 115.26 141.35 102.96 140.9 92.34 140.9 70.93 141.96 70.02"/><polygon class="cls-1" points="202.76 115.5 179.44 115.5 173.43 114.59 173.97 107.3 172.88 106.75 172.88 103.66 173.97 100.56 172.52 99.1 173.43 98.19 173.43 57.57 174.54 55.02 171.99 28.42 171.99 18.76 200.41 18.76 200.41 26.96 199.66 30.06 199.66 53.2 203.49 54.29 205.51 54.29 208.77 53.38 209.68 54.83 211.32 54.65 214.6 56.29 219.34 57.02 219.34 7.29 220.43 3.1 217.15 0 213.87 0.55 153.94 0.55 153.94 31.15 152.66 32.24 154.86 34.8 154.86 52.65 153.04 58.84 153.04 76.33 154.12 79.61 153.21 89.08 153.94 92.73 153.94 108.03 155.39 125.88 156.49 133.72 164.14 133.35 203.69 133.35 219.88 134.81 221.16 133.53 221.16 79.06 202.76 83.8 202.76 115.5"/><polygon class="cls-1" points="288.21 108.21 283.84 109.49 254.15 109.49 251.95 108.39 251.95 92.55 251.05 90.72 251.05 85.62 251.95 79.25 252.69 77.42 282.75 75.78 282.75 71.96 281.47 69.41 282.75 64.31 282.75 56.84 270.54 54.29 263.97 53.56 252.69 54.29 250.5 30.97 252.49 29.88 252.69 26.6 254.15 25.69 285.47 24.05 298.23 24.05 296.05 14.57 296.59 12.75 296.59 4.19 295.87 2 232.47 2 232.47 22.23 231 24.05 233.38 27.87 233.38 72.14 236.29 132.08 299.69 132.08 299.14 124.06 301.31 106.03 288.21 108.21"/><polygon class="cls-1" points="356.53 116.04 355.6 115.13 354.52 114.95 354.16 116.58 327.18 117.68 327.02 116.58 325.74 115.67 326.64 111.48 327.38 100.01 327.38 65.03 325.91 63.39 325.91 19.67 323.01 19.49 323.01 13.47 324.09 4 303.33 4 304.06 8.01 304.97 27.68 304.97 138.08 378.37 138.08 378.37 116.04 356.53 116.04"/></g></g></svg>